<?xml version="1.0" encoding="UTF-8"?>
<svg xmlns="http://www.w3.org/2000/svg" viewBox="0 0 2400 1024" width="2400" height="1024">
  <rect width="2400" height="1024" fill="#FFFFFF"/>

  <!-- Monograma MF -->
  <rect x="80" y="162" width="700" height="700" fill="#1A1A1A"/>
  <g transform="translate(80,162) scale(0.68359375)">
    <g transform="translate(0.000000,1024.000000) scale(0.100000,-0.100000)" fill="#FFFFFF" stroke="none">
      <path d="M0 5120 l0 -5120 5120 0 5120 0 0 5120 0 5120 -5120 0 -5120 0 0 -5120z m2992 1235 c266 -264 619 -615 785 -779 l302 -299 468 464 c257 255 610 604 783 776 174 172 319 313 323 313 4 0 7 -282 7 -627 l-1 -628 -352 -345 -352 -345 -3 155 -3 154 -434 -434 -434 -434 -298 295 c-164 162 -359 354 -433 426 l-135 132 -5 -872 -5 -872 -355 0 -355 0 0 1702 c0 937 3 1702 7 1700 4 -1 225 -218 490 -482z m4758 456 c0 -5 -54 -146 -120 -313 -67 -167 -127 -319 -134 -338 l-14 -35 -836 -3 -836 -2 0 343 c0 189 3 347 7 350 10 11 1933 8 1933 -2z m-509 -1388 c-10 -27 -54 -138 -97 -248 -42 -110 -94 -243 -115 -295 l-37 -95 -588 0 -589 0 -3 343 -2 342 725 0 725 0 -19 -47z m-1581 -1028 l0 -965 -355 0 -355 0 0 622 0 623 98 93 c53 52 210 206 348 343 138 137 254 249 257 249 4 0 7 -434 7 -965z"/>
    </g>
  </g>

  <!-- Linea separadora vertical -->
  <line x1="870" y1="200" x2="870" y2="824"
        stroke="#6B4F7A" stroke-width="4"/>

  <!-- MOTOS -->
  <text x="940" y="420"
        font-family="Montserrat, Arial, Helvetica, sans-serif"
        font-weight="300" font-size="60" letter-spacing="16"
        fill="#1A1A1A">MOTOS</text>

  <!-- FERNANDEZ -->
  <text x="940" y="560"
        font-family="Montserrat, Arial, Helvetica, sans-serif"
        font-weight="700" font-size="108" letter-spacing="8"
        fill="#1A1A1A">FERNANDEZ</text>

  <!-- Est. 1985 -->
  <text x="940" y="700"
        font-family="Montserrat, Arial, Helvetica, sans-serif"
        font-weight="300" font-size="34" letter-spacing="10"
        fill="#AAA9A9">EST. 1985 — BAHIA BLANCA</text>
</svg>