<?xml version="1.0" encoding="UTF-8"?>
<svg xmlns="http://www.w3.org/2000/svg" viewBox="0 0 1024 1024" width="512" height="512">
  <rect width="1024" height="1024" rx="80" fill="#FFFFFF"/>
  <g transform="translate(0.000000,1024.000000) scale(0.100000,-0.100000)" fill="#1A1A1A" stroke="none">
    <path d="M0 5120 l0 -5120 5120 0 5120 0 0 5120 0 5120 -5120 0 -5120 0 0 -5120z m2992 1235 c266 -264 619 -615 785 -779 l302 -299 468 464 c257 255 610 604 783 776 174 172 319 313 323 313 4 0 7 -282 7 -627 l-1 -628 -352 -345 -352 -345 -3 155 -3 154 -434 -434 -434 -434 -298 295 c-164 162 -359 354 -433 426 l-135 132 -5 -872 -5 -872 -355 0 -355 0 0 1702 c0 937 3 1702 7 1700 4 -1 225 -218 490 -482z m4758 456 c0 -5 -54 -146 -120 -313 -67 -167 -127 -319 -134 -338 l-14 -35 -836 -3 -836 -2 0 343 c0 189 3 347 7 350 10 11 1933 8 1933 -2z m-509 -1388 c-10 -27 -54 -138 -97 -248 -42 -110 -94 -243 -115 -295 l-37 -95 -588 0 -589 0 -3 343 -2 342 725 0 725 0 -19 -47z m-1581 -1028 l0 -965 -355 0 -355 0 0 622 0 623 98 93 c53 52 210 206 348 343 138 137 254 249 257 249 4 0 7 -434 7 -965z"/>
  </g>
</svg>
